<?xml version="1.0" encoding="utf-8"?>
<svg version="1.1" xmlns="http://www.w3.org/2000/svg" xmlns:xlink="http://www.w3.org/1999/xlink" x="0px" y="0px"
	 viewBox="0 0 312.58 73.05">
<g>
	<path d="M49.62,40.45v31.48H33.72V41.67c0-2.38-0.53-4.26-1.58-5.65c-1.05-1.39-2.6-2.09-4.64-2.09c-2.85,0-6.72,1.43-11.61,4.28
		v33.72H0V1.12L15.89,0v25.68c2.65-1.43,5.38-2.58,8.2-3.46c2.82-0.88,5.52-1.32,8.1-1.32C43.81,20.89,49.62,27.41,49.62,40.45z"/>
	<path d="M78.55,20.99c5.03,0,9.27,1.16,12.74,3.46c3.46,2.31,6.06,5.4,7.79,9.27s2.6,8.22,2.6,13.04v4.79H70
		c1.49,5.77,5.84,8.66,13.04,8.66c4.69,0,9.34-1.29,13.96-3.87l4.48,11.11c-2.31,1.7-5.15,3.06-8.51,4.08
		c-3.36,1.02-7.05,1.53-11.05,1.53c-9.03,0-16.15-2.27-21.35-6.83c-5.2-4.55-7.79-10.87-7.79-18.95c0-5.3,1.09-9.93,3.26-13.91
		c2.17-3.97,5.21-7.03,9.12-9.17C69.06,22.06,73.53,20.99,78.55,20.99z M78.15,34.13c-2.24,0-4.13,0.76-5.65,2.29
		s-2.43,3.55-2.7,6.06H86.5c-0.41-2.51-1.31-4.53-2.7-6.06C82.41,34.9,80.52,34.13,78.15,34.13z"/>
	<path d="M129.44,37.24c-3.09,1.32-5.86,3.04-8.3,5.15v29.55h-16V22.62h8.15l4.48,7.03c2.38-1.83,5.13-3.48,8.25-4.94
		c3.12-1.46,5.94-2.19,8.46-2.19l3.16,12.74C135.27,35.25,132.53,35.92,129.44,37.24z"/>
	<path d="M220.17,39.53v32.4h-15.89V41.67c0-2.51-0.39-4.43-1.17-5.76c-0.78-1.32-2.23-1.99-4.33-1.99c-1.43,0-3.02,0.39-4.79,1.17
		c-1.77,0.78-3.74,1.82-5.91,3.11v1.32v32.4h-15.89V41.67c0-2.51-0.39-4.43-1.17-5.76c-0.78-1.32-2.23-1.99-4.33-1.99
		c-1.43,0-3.04,0.39-4.84,1.17c-1.8,0.78-3.79,1.82-5.96,3.11v33.72h-16V22.52h9.88l2.75,5.2c2.99-2.04,6.15-3.68,9.48-4.94
		c3.33-1.26,6.45-1.88,9.37-1.88c6.66,0,11.31,2.14,13.96,6.42c2.92-1.9,5.98-3.45,9.17-4.64c3.19-1.19,6.21-1.78,9.07-1.78
		c5.91,0,10.15,1.61,12.74,4.84C218.88,28.95,220.17,33.56,220.17,39.53z"/>
	<path d="M249.11,20.99c5.03,0,9.27,1.16,12.74,3.46c3.46,2.31,6.06,5.4,7.79,9.27s2.6,8.22,2.6,13.04v4.79h-31.69
		c1.49,5.77,5.84,8.66,13.04,8.66c4.69,0,9.34-1.29,13.96-3.87l4.48,11.11c-2.31,1.7-5.15,3.06-8.51,4.08
		c-3.36,1.02-7.05,1.53-11.05,1.53c-9.03,0-16.15-2.27-21.34-6.83c-5.2-4.55-7.79-10.87-7.79-18.95c0-5.3,1.09-9.93,3.26-13.91
		c2.17-3.97,5.21-7.03,9.12-9.17C239.62,22.06,244.08,20.99,249.11,20.99z M248.7,34.13c-2.24,0-4.13,0.76-5.66,2.29
		s-2.43,3.55-2.7,6.06h16.71c-0.41-2.51-1.31-4.53-2.7-6.06C252.96,34.9,251.08,34.13,248.7,34.13z"/>
	<path d="M292,73.05c-2.72,0-6.01-0.44-9.88-1.32c-3.87-0.88-6.96-2.24-9.27-4.08l4.69-10.39c2.1,1.02,4.43,1.85,6.98,2.5
		c2.55,0.65,4.7,0.97,6.47,0.97c1.63,0,3.07-0.29,4.33-0.87c1.26-0.58,1.88-1.38,1.88-2.39c0-0.88-0.59-1.73-1.78-2.55
		c-1.19-0.81-2.84-1.56-4.94-2.24c-4.96-1.7-9.03-3.8-12.23-6.32c-3.19-2.51-4.79-5.71-4.79-9.58c0-4.89,1.83-8.74,5.5-11.56
		c3.67-2.82,8.69-4.23,15.08-4.23c2.58,0,5.59,0.43,9.02,1.27c3.43,0.85,6.33,2.16,8.71,3.92l-4.58,10.39
		c-4.76-2.1-8.97-3.16-12.63-3.16c-1.56,0-2.85,0.31-3.87,0.92s-1.53,1.39-1.53,2.34c0,1.09,2.14,2.38,6.42,3.87
		c11.34,3.94,17.01,9.44,17.01,16.51c0,5.09-1.75,9.03-5.25,11.82C303.84,71.66,298.73,73.05,292,73.05z"/>
</g>
</svg>
