<?xml version="1.0" encoding="utf-8"?>
<!-- Generator: Adobe Illustrator 22.1.0, SVG Export Plug-In . SVG Version: 6.00 Build 0)  -->
<svg version="1.1" id="Layer_1" xmlns="http://www.w3.org/2000/svg" xmlns:xlink="http://www.w3.org/1999/xlink" x="0px" y="0px"
	 viewBox="0 0 34.14 10.47" style="enable-background:new 0 0 34.14 10.47;" xml:space="preserve">
<path d="M33.43,3.84c-0.34,0-0.54,0.35-0.68,0.82c-0.35,0.48-1.31,1.44-1.83,1.89c0,0,0,0,0,0c-0.31,0.3-2.46,1.87-3.53,1.87
	c-0.35,0-0.48-0.17-0.48-0.42c0-0.26,0.16-0.62,0.4-1.01c0.12,0.04,0.26,0.06,0.41,0.06c1.25,0,2.61-1.1,2.61-1.77
	c0-0.4-0.55-0.97-1.12-0.97c-0.98,0-2.42,1.58-2.97,2.8c-0.73,0.56-1.38,0.95-1.59,0.95c-0.07,0-0.11-0.05-0.11-0.13
	c0-0.47,0.97-2.02,1.82-2.7c0.05-0.01,0.07-0.05,0.07-0.1c0-0.23-0.55-0.76-0.78-0.76c-0.55,0-2.73,2.21-3.85,3.42
	c0.47-0.8,1.15-1.86,1.76-2.41c0.05-0.01,0.07-0.05,0.07-0.1c0-0.23-0.55-0.76-0.78-0.76c-0.47,0-2.29,1.81-3.41,3.01
	c0.76-1.05,1.77-2.46,1.79-2.6c0.01-0.33-0.47-0.66-0.7-0.66c-0.06,0-0.11,0.04-0.11,0.08c0,0.02,0.01,0.04,0.01,0.06
	c0,0.23-0.66,1.21-1.32,2.16c-0.9,0.79-2.23,1.76-2.81,1.76c-0.07,0-0.11-0.04-0.11-0.08c0-0.4,1.76-2.1,1.76-2.47
	c0-0.2-0.14-0.62-0.47-0.8c-0.14-0.08-0.34-0.13-0.52-0.18c0.48-0.56,0.77-0.98,0.77-1.15c0-0.19-0.49-0.49-0.84-0.49
	c-0.73,0-1.68,0.82-1.68,1.37c0,0.31,0.44,0.44,0.91,0.54c-0.43,0.47-0.97,0.99-1.51,1.49c0,0,0,0,0,0
	c-0.31,0.3-2.46,1.87-3.53,1.87c-0.35,0-0.48-0.17-0.48-0.42c0-0.26,0.16-0.62,0.4-1.01c0.12,0.04,0.26,0.06,0.41,0.06
	c1.25,0,2.61-1.1,2.61-1.77c0-0.4-0.55-0.97-1.12-0.97c-0.63,0-1.44,0.65-2.09,1.43c-0.22-0.26-0.62-0.51-1.17-0.51H9.25
	c1.45-2.16,3.13-4.22,3.72-4.22c0.05,0.01,0.07,0.01,0.1,0.01c0.04,0,0.08-0.04,0.08-0.08c0-0.2-0.55-0.52-0.9-0.52
	c-0.71,0-2.75,2.47-4.26,4.87C6.98,5.35,5.82,5.47,4.68,5.66c1.49-2.13,3.31-4.41,3.31-4.92C7.99,0.36,7.45,0,7.17,0
	C7.09,0,7.02,0.02,7.02,0.1c0,0.04,0.01,0.06,0.01,0.08c0,0.78-2.05,3.5-3.53,5.72C2.3,6.16,1.21,6.54,0.43,7.03
	C0.11,7.23,0,7.47,0,7.63c0,0.12,0.06,0.19,0.13,0.19c0.08,0,0.18-0.08,0.26-0.26C0.55,7.3,1.6,7,2.96,6.74
	c-0.55,0.89-0.94,1.62-0.94,2c0,0.6,0.5,0.96,0.73,0.96c0.11,0,0.17-0.04,0.17-0.12c0-0.11-0.13-0.06-0.13-0.29
	c0-0.59,0.55-1.62,1.3-2.76c1.1-0.18,2.3-0.32,3.38-0.41c-0.72,1.22-1.24,2.35-1.28,3c-0.05,0.58,0.24,1.34,0.76,1.34
	c0.16,0,0.24-0.11,0.24-0.2c0-0.07-0.05-0.13-0.12-0.13c-0.02,0-0.05,0.01-0.07,0.01c-0.1-0.04-0.13-0.13-0.13-0.26
	c0-0.62,0.82-2.18,1.85-3.83C8.9,6.04,9.09,6.04,9.26,6.04c0.55,0,0.99,0.04,1.26,0.11c-0.46,0.65-0.79,1.33-0.79,1.78
	c0,0.6,0.56,1.32,1.31,1.32c1.07,0,2.94-1.49,3.82-2.29c0,0,0,0,0,0c0.7-0.65,1.31-1.27,1.8-1.81c0.31,0.07,0.56,0.14,0.56,0.29
	c0,0.44-2.1,2.19-2.1,2.94c0,0.34,0.44,0.96,0.84,0.96c0.38,0,1.24-0.56,2.12-1.26c-0.05,0.07-0.1,0.15-0.14,0.22
	c-0.04,0.06-0.06,0.13-0.06,0.22c0,0.33,0.3,0.77,0.52,0.77c0.06,0,0.11-0.02,0.14-0.08c0.32-0.64,2.96-3.17,3.63-3.67l0.05,0.05
	c-0.4,0.47-1.37,2.13-1.64,2.72c-0.04,0.06-0.06,0.13-0.06,0.22c0,0.33,0.3,0.77,0.52,0.77c0.06,0,0.11-0.02,0.14-0.08
	c0.32-0.64,3.12-3.32,3.79-3.83l0.05,0.05c-0.41,0.48-1.51,2-1.51,2.7c0,0.4,0.35,0.94,0.66,0.94c0.29,0,1.01-0.46,1.83-1.11
	c0,0.6,0.57,1.31,1.31,1.31c1.07,0,2.94-1.49,3.82-2.29c0,0,0,0,0,0c0.46-0.41,0.96-0.88,1.39-1.29c-0.17,1.15-0.47,2.78-1.31,2.78
	c-0.4,0-0.49-0.43-0.49-0.55c0-0.02,0-0.05-0.05-0.05c-0.11,0-0.32,0.24-0.32,0.41c0,0.42,0.66,1.02,1.31,1.02
	c0.88,0,1.33-0.77,1.49-1.73c0.2-1.27,0.29-2.89,0.89-3.19c0.06-0.01,0.1-0.04,0.1-0.07C34.14,4.14,33.69,3.84,33.43,3.84z
	 M29.49,5.01c0.13,0,0.18,0.06,0.18,0.13c0,0.46-1.33,1.4-2.02,1.4h-0.05C28.2,5.76,29.04,5.01,29.49,5.01z M13.22,5.01
	c0.13,0,0.18,0.06,0.18,0.13c0,0.46-1.33,1.4-2.02,1.4h-0.05C11.93,5.76,12.77,5.01,13.22,5.01z M16.49,4.68
	c-0.22-0.06-0.36-0.12-0.36-0.24c0-0.31,0.55-0.82,0.86-0.82c0.07,0,0.11,0.04,0.11,0.1C17.1,3.87,16.86,4.23,16.49,4.68z"/>
</svg>
